HIERARCHY
ROOT Hips
{
	OFFSET 0.00000 0.00000 0.00000
	CHANNELS 6 Xposition Yposition Zposition Zrotation Yrotation Xrotation 
	JOINT LHipJoint
	{
		OFFSET 0 0 0
		CHANNELS 3 Zrotation Yrotation Xrotation
		JOINT LeftHip
		{
			OFFSET 1.51378 -1.89840 0.47569
			CHANNELS 3 Zrotation Yrotation Xrotation
			JOINT LeftKnee
			{
				OFFSET 2.53380 -6.96157 0.00000
				CHANNELS 3 Zrotation Yrotation Xrotation
				JOINT LeftAnkle
				{
					OFFSET 2.74874 -7.55212 0.00000
					CHANNELS 3 Zrotation Yrotation Xrotation
					JOINT LeftToe
					{
						OFFSET 0.18263 -0.50178 1.99677
						CHANNELS 3 Zrotation Yrotation Xrotation
						End Site
						{
							OFFSET 0.00000 -0.00000 1.03711
						}
					}
				}
			}
		}
	}
	JOINT RHipJoint
	{
		OFFSET 0 0 0
		CHANNELS 3 Zrotation Yrotation Xrotation
		JOINT RightHip
		{
			OFFSET -1.43037 -1.89840 0.47569
			CHANNELS 3 Zrotation Yrotation Xrotation
			JOINT RightKnee
			{
				OFFSET -2.69849 -7.41406 0.00000
				CHANNELS 3 Zrotation Yrotation Xrotation
				JOINT RightAnkle
				{
					OFFSET -2.69369 -7.40087 0.00000
					CHANNELS 3 Zrotation Yrotation Xrotation
					JOINT RightToe
					{
						OFFSET -0.28932 -0.79491 2.04975
						CHANNELS 3 Zrotation Yrotation Xrotation
						End Site
						{
							OFFSET 0.00009 0.00010 1.09536
						}
					}
				}
			}
		}
	}
	JOINT lowerback
	{
		OFFSET 0 0 0
		CHANNELS 3 Zrotation Yrotation Xrotation
		JOINT Chest
		{
			OFFSET 0.01912 1.94784 -0.02419
			CHANNELS 3 Zrotation Yrotation Xrotation
			JOINT Chest2
			{
				OFFSET 0.07565 1.94258 0.01909
				CHANNELS 3 Zrotation Yrotation Xrotation
				JOINT lowerneck
				{
					OFFSET 0 0 0
					CHANNELS 3 Zrotation Yrotation Xrotation
					JOINT Neck
					{
						OFFSET -0.07010 1.86195 0.18976
						CHANNELS 3 Zrotation Yrotation Xrotation
						JOINT Head
						{
							OFFSET 0.02284 1.86595 -0.31497
							CHANNELS 3 Zrotation Yrotation Xrotation
							End Site
							{
								OFFSET 0.01200 1.90122 -0.12838
							}
						}
					}
				}
				JOINT LeftCollar
				{
					OFFSET 0 0 0
					CHANNELS 3 Zrotation Yrotation Xrotation
					JOINT LeftShoulder
					{
						OFFSET 3.39189 0.96331 -0.10437
CHANNELS 3 Zrotation Xrotation Yrotation
						JOINT LeftElbow
						{
OFFSET 0 -5.148450 0.000000
CHANNELS 3 Zrotation Xrotation Yrotation
							JOINT LeftWrist
							{
OFFSET 0 -3.436740 -0.000000
CHANNELS 3 Zrotation Xrotation Yrotation
								JOINT lhand
								{
									OFFSET 0 0 0
CHANNELS 3 Zrotation Xrotation Yrotation
									JOINT LFingers
									{
OFFSET 0 -0.588710 0.000000
CHANNELS 3 Zrotation Xrotation Yrotation
										End Site
										{
OFFSET 0 -0.474630 0.000000
										}
									}
								}
								JOINT LThumb
								{
OFFSET 0 0.000000 0.000000
CHANNELS 3 Zrotation Xrotation Yrotation
									End Site
									{
OFFSET 0 -0.481880 0.481880
									}
								}
							}
						}
					}
				}
				JOINT RightCollar
				{
					OFFSET 0 0 0
					CHANNELS 3 Zrotation Yrotation Xrotation
					JOINT RightShoulder
					{
						OFFSET -3.34934 1.18831 -0.19928
CHANNELS 3 Zrotation Xrotation Yrotation
						JOINT RightElbow
						{
OFFSET 0 -5.421850 0.000000
CHANNELS 3 Zrotation Xrotation Yrotation
							JOINT RightWrist
							{
OFFSET 0 -3.513170 -0.000000
CHANNELS 3 Zrotation Xrotation Yrotation
								JOINT rhand
								{
									OFFSET 0 0 0
CHANNELS 3 Zrotation Xrotation Yrotation
									JOINT RFingers
									{
OFFSET 0 -0.663190 0.000000
CHANNELS 3 Zrotation Xrotation Yrotation
										End Site
										{
OFFSET 0 -0.534680 0.000000
										}
									}
								}
								JOINT RThumb
								{
OFFSET 0 0.000000 0.000000
CHANNELS 3 Zrotation Xrotation Yrotation
									End Site
									{
OFFSET 0 -0.542840 0.542840
									}
								}
							}
						}
					}
				}
			}
		}
	}
}
MOTION
Frames: 7
Frame Time: 0.008333333333333333
15.530200 17.763700 -3.600100 -149.656000 -83.198700 158.150000 0.000000 0.000000 0.000000 -20.289100 -6.336400 -20.293800 3.324300 11.202500 32.965700 1.022800 5.597200 -21.907300 2.121000 -9.113600 -26.151400 0.000000 0.000000 0.000000 25.845300 13.556600 -20.363500 -4.847200 -13.209600 40.158300 -2.295600 -0.408600 -28.843200 -0.006900 -0.535200 1.470600 0.534200 1.868600 0.134800 3.558700 2.456800 -0.310700 3.338100 1.213000 -0.528200 -3.478600 -0.897200 -12.383000 -2.356700 -0.878800 34.277300 -0.566400 -1.585600 13.680500 0.000000 -0.000000 0.000000 -1.393700 1.561500 -19.249700 15.687400 -25.095000 3.512300 17.197600 7.166900 -23.850600 0.000000 0.000000 0.000000 -7.125000 0.000000 0.000000 -12.775900 54.358700 2.974900 0.000000 -0.000000 0.000000 -3.530800 -3.639600 20.312000 -13.900200 -22.591900 -2.789700 -28.884900 -2.174900 -11.827100 0.000000 0.000000 0.000000 7.125000 0.000000 -0.000000 -1.176100 16.531500 -0.793000
15.533992 17.775293 -3.530357 -148.900255 -83.408918 157.590559 0.000000 0.000000 0.000000 -20.420464 -6.101937 -20.630982 3.331715 11.213592 33.003814 1.191910 3.828050 -22.328284 1.509758 -7.759893 -21.987157 0.000000 0.000000 0.000000 25.523996 13.581432 -20.712684 -4.866209 -13.231447 40.241281 -2.256091 -0.669757 -28.682085 -0.006779 -0.526513 1.446845 0.448802 1.871028 0.159921 3.457056 2.461777 -0.259172 3.281191 1.216484 -0.488762 -3.596895 -1.069613 -12.149987 -2.530121 -1.067591 34.265038 -0.640290 -1.707485 13.626419 0.000000 0.000000 0.000000 -1.569447 1.429552 -19.164899 15.747340 -25.176860 3.537813 17.816589 7.961953 -23.989128 0.000000 0.000000 0.000000 -7.125000 0.000000 0.000000 -12.212199 54.615485 2.917429 0.000000 0.000000 0.000000 -3.520365 -3.790006 20.678767 -14.139841 -22.934279 -2.882367 -29.067500 -2.826173 -12.156503 0.000000 0.000000 0.000000 7.125000 0.000000 0.000000 -1.272975 16.137091 -0.869280
15.546094 17.776784 -3.489318 -149.214157 -83.553331 158.097604 0.000000 0.000000 0.000000 -20.591581 -6.310367 -20.789555 3.313289 11.185711 32.908831 1.224441 3.457969 -22.407771 1.301543 -7.227484 -20.391130 0.000000 0.000000 0.000000 25.197978 13.595942 -21.046705 -4.875683 -13.242446 40.282875 -2.293725 -0.419816 -28.835170 -0.027230 -1.065706 2.929613 -0.008990 1.857219 0.112980 3.295392 2.447422 -0.258573 3.373261 1.213507 -0.473325 -3.007899 -1.050292 -12.124753 -2.810913 -1.109290 34.339770 -0.863041 -1.689737 13.643854 0.000000 0.000000 0.000000 -1.251328 1.280720 -19.273536 15.962653 -25.469988 3.629854 17.594210 7.225202 -24.159684 0.000000 0.000000 0.000000 -7.125000 0.000000 0.000000 -12.517326 54.742650 3.031166 0.000000 0.000000 0.000000 -3.331512 -3.625823 21.407336 -14.326602 -23.199729 -2.955592 -28.757084 -3.721537 -12.219084 0.000000 0.000000 0.000000 7.125000 0.000000 0.000000 -1.053464 16.105733 -0.720142
15.546148 17.795884 -3.455682 -145.380718 -83.392515 154.142339 0.000000 0.000000 0.000000 -19.993396 -6.727360 -20.699091 3.431176 11.362267 33.511741 1.412912 1.102829 -22.891030 0.213385 -2.931564 -8.091003 0.000000 0.000000 0.000000 25.667532 13.605019 -20.607389 -4.766391 -13.115806 39.803595 -2.276249 -0.693737 -28.817865 -0.030302 -1.116415 3.069227 0.178595 1.954580 0.356288 3.504748 2.579988 -0.325077 3.472736 1.279052 -0.687200 -3.256234 -1.006769 -11.735478 -2.650501 -1.060648 34.262324 -0.741427 -1.679392 13.527673 0.000000 0.000000 0.000000 -1.466380 1.605405 -19.362768 16.254567 -25.864602 3.756344 18.563133 7.482857 -24.175006 0.000000 0.000000 0.000000 -7.125000 0.000000 0.000000 -11.535210 54.946860 2.845969 0.000000 0.000000 0.000000 -3.105739 -3.478424 20.002475 -14.068755 -22.832942 -2.854712 -29.594056 -2.415115 -12.439694 0.000000 0.000000 0.000000 7.125000 0.000000 0.000000 -1.609073 15.748781 -1.112346
15.541789 17.776595 -3.417268 -147.541902 -83.883748 156.206930 0.000000 0.000000 0.000000 -20.807035 -6.039586 -20.803582 3.372494 11.274891 33.212761 1.345682 2.057767 -22.749060 0.840310 -5.766838 -16.131727 0.000000 0.000000 0.000000 24.995453 13.473967 -20.783738 -4.873086 -13.239385 40.271439 -2.313864 -0.489058 -28.984893 -0.044633 -1.359493 3.738670 -0.105170 1.797519 0.374009 3.245976 2.373629 -0.248492 3.368410 1.178631 -0.606698 -3.152406 -0.902899 -11.865435 -2.497412 -0.984525 34.417548 -0.693262 -1.617464 13.623163 0.000000 0.000000 0.000000 -1.260759 1.469548 -18.962363 16.138881 -25.708512 3.705985 18.452583 7.431878 -24.267978 0.000000 0.000000 0.000000 -7.125000 0.000000 0.000000 -11.691025 55.018547 2.905664 0.000000 0.000000 0.000000 -2.988859 -3.302875 20.848380 -13.960447 -22.678144 -2.812836 -28.782967 -2.816595 -12.239715 0.000000 0.000000 0.000000 7.125000 0.000000 0.000000 -1.069454 16.079072 -0.731706
15.535728 17.772626 -3.402840 -149.243691 -83.931414 157.988614 0.000000 0.000000 0.000000 -21.063747 -6.064902 -20.799568 3.345806 11.234862 33.076132 1.348137 1.903682 -22.699205 0.778244 -5.586735 -15.600329 0.000000 0.000000 0.000000 24.729225 13.590527 -20.959042 -4.933173 -13.308057 40.533056 -2.319231 -0.778062 -29.117130 -0.017828 -0.862789 2.371322 -0.503152 1.864331 0.441254 3.302969 2.463915 -0.284776 3.647122 1.227531 -0.706623 -3.317986 -0.921719 -12.053445 -2.496481 -0.966786 34.651399 -0.669804 -1.638428 13.771622 0.000000 0.000000 0.000000 -1.482405 1.649023 -19.056400 16.080252 -25.629271 3.680596 17.388710 6.627449 -24.113542 0.000000 0.000000 0.000000 -7.125000 0.000000 0.000000 -12.704617 54.657110 3.050897 0.000000 0.000000 0.000000 -2.860523 -3.134878 20.229966 -13.886133 -22.571686 -2.784221 -29.036827 -2.482779 -12.538315 0.000000 0.000000 0.000000 7.125000 0.000000 0.000000 -1.217225 15.710390 -0.842353
15.525168 17.784270 -3.383981 -148.115952 -84.201525 156.926344 0.000000 0.000000 0.000000 -20.994026 -7.545949 -20.362580 3.392335 11.304568 33.314041 1.384556 1.144338 -22.681494 0.198127 -2.800387 -7.727986 0.000000 0.000000 0.000000 24.615385 12.683366 -21.406771 -4.935939 -13.311303 40.545330 -2.313100 -0.661403 -29.038428 -0.000713 -0.168321 0.462547 -0.454972 1.828772 0.464373 3.307993 2.413749 -0.167432 3.627409 1.199923 -0.593954 -3.319568 -1.049981 -11.825007 -2.517578 -1.151498 34.394130 -0.695116 -1.711260 13.606969 0.000000 0.000000 0.000000 -1.717175 1.642956 -18.822652 16.066477 -25.610623 3.674674 17.469184 7.398149 -24.249852 0.000000 0.000000 0.000000 -7.125000 0.000000 0.000000 -12.686608 54.808330 3.093436 0.000000 0.000000 0.000000 -2.849395 -3.226923 20.496443 -13.948296 -22.660747 -2.808147 -29.714778 -3.195439 -12.676211 0.000000 0.000000 0.000000 7.125000 0.000000 0.000000 -1.669179 15.464670 -1.163991
